<svg width="173" height="48" viewBox="0 0 173 48" fill="none" xmlns="http://www.w3.org/2000/svg">
<rect x="6.65283" y="6.38067" width="36.8826" height="36.8826" rx="13" transform="rotate(6.65126 6.65283 6.38067)" fill="#1F90A2"/>
<rect x="4.27197" y="4" width="36.8826" height="36.8826" rx="13" transform="rotate(6.65126 4.27197 4)" fill="#D9D9D9"/>
<rect x="49.9731" y="6.5484" width="36.8826" height="36.8826" rx="13" transform="rotate(6.65126 49.9731 6.5484)" fill="#1F90A2"/>
<rect x="47.5923" y="4.16773" width="36.8826" height="36.8826" rx="13" transform="rotate(6.65126 47.5923 4.16773)" fill="#D9D9D9"/>
<rect x="93.126" y="6.5484" width="36.8826" height="36.8826" rx="13" transform="rotate(6.65126 93.126 6.5484)" fill="#1F90A2"/>
<rect x="90.7451" y="4.16773" width="36.8826" height="36.8826" rx="13" transform="rotate(6.65126 90.7451 4.16773)" fill="#D9D9D9"/>
<rect x="136.278" y="6.5484" width="36.8826" height="36.8826" rx="13" transform="rotate(6.65126 136.278 6.5484)" fill="#1F90A2"/>
<rect x="133.897" y="4.16773" width="36.8826" height="36.8826" rx="13" transform="rotate(6.65126 133.897 4.16773)" fill="#D9D9D9"/>
<path d="M18.3119 21.8839L14.8156 21.4763C15.1704 19.9068 15.6764 18.6986 16.3335 17.8517C17.4762 16.5244 19.2236 15.9979 21.5757 16.2721C23.3768 16.4821 24.7141 17.0783 25.5876 18.0608C26.4847 19.0245 26.843 20.2797 26.6627 21.8266L25.5955 30.9806C25.4225 32.4639 25.5849 33.3741 26.0825 33.7114L26.0047 34.3789L22.0952 33.923C22.0135 33.3336 21.9748 32.6526 21.979 31.8798C21.1523 32.707 20.3895 33.2624 19.6906 33.5461C18.9918 33.8297 18.1973 33.9196 17.3074 33.8159C15.9724 33.6602 14.9648 33.0917 14.2845 32.1104C13.6255 31.1314 13.3849 29.8792 13.5627 28.3535C13.7357 26.8702 14.2261 25.7031 15.0341 24.8523C15.8632 24.004 16.9377 23.5386 18.2574 23.4562L21.6017 23.234C22.4666 23.1845 22.9447 22.7677 23.0361 21.9837C23.1843 20.7123 22.5062 19.9889 21.0017 19.8135C20.2177 19.7221 19.6246 19.8355 19.2224 20.1537C18.8226 20.4508 18.5191 21.0275 18.3119 21.8839ZM22.358 27.8003L22.61 25.6389C22.1654 25.9522 21.3031 26.1631 20.0233 26.2716C19.0899 26.3561 18.4102 26.5668 17.9844 26.9038C17.5797 27.2432 17.3353 27.7731 17.2513 28.4936C17.1772 29.1293 17.2768 29.6564 17.5502 30.0748C17.8261 30.4721 18.2289 30.7016 18.7586 30.7634C19.6486 30.8672 20.4379 30.637 21.1265 30.073C21.8388 29.4902 22.2493 28.7326 22.358 27.8003Z" fill="black"/>
<path d="M66.7087 28.9366L70.4593 29.3738C70.0392 30.3987 69.625 31.1881 69.2167 31.7419C68.811 32.2745 68.2937 32.7511 67.6647 33.1718C66.5202 33.9619 65.1639 34.2655 63.5959 34.0827C61.4345 33.8307 59.8507 32.8621 58.8444 31.1769C57.8618 29.473 57.5372 27.1907 57.8707 24.3301C58.1919 21.5754 59.0266 19.482 60.3749 18.0498C61.7231 16.6177 63.4249 16.0214 65.4804 16.261C67.5993 16.5081 69.1265 17.5023 70.0618 19.2436C71.0183 20.9875 71.3211 23.3639 70.9703 26.3728L70.8777 27.1674L61.374 26.0594C61.3145 27.4915 61.5007 28.5656 61.9326 29.2818C62.3671 29.9768 63.0823 30.3823 64.0782 30.4984C65.3284 30.6442 66.2052 30.1236 66.7087 28.9366ZM61.8103 23.1463L67.468 23.806C67.4904 21.4031 66.6752 20.1053 65.0224 19.9126C64.2172 19.8187 63.5587 20.0319 63.0471 20.5521C62.5354 21.0724 62.1231 21.9371 61.8103 23.1463Z" fill="black"/>
<path d="M113.088 22.9542L104.944 31.7342L112.223 32.5828L111.797 36.238L99.7822 34.8373L100.186 31.3727L108.49 22.3215L101.847 21.547L102.262 17.9871L113.514 19.2989L113.088 22.9542Z" fill="black"/>
<path d="M147.312 22.8839L143.816 22.4763C144.17 20.9068 144.676 19.6986 145.334 18.8517C146.476 17.5244 148.224 16.9979 150.576 17.2721C152.377 17.4821 153.714 18.0783 154.588 19.0608C155.485 20.0245 155.843 21.2797 155.663 22.8266L154.595 31.9806C154.423 33.4639 154.585 34.3741 155.082 34.7114L155.005 35.3789L151.095 34.923C151.014 34.3336 150.975 33.6526 150.979 32.8798C150.152 33.707 149.39 34.2624 148.691 34.5461C147.992 34.8297 147.197 34.9196 146.307 34.8159C144.972 34.6602 143.965 34.0917 143.285 33.1104C142.625 32.1314 142.385 30.8792 142.563 29.3535C142.736 27.8702 143.226 26.7031 144.034 25.8523C144.863 25.004 145.938 24.5386 147.257 24.4562L150.602 24.234C151.467 24.1845 151.945 23.7677 152.036 22.9837C152.184 21.7123 151.506 20.9889 150.002 20.8135C149.218 20.7221 148.625 20.8355 148.222 21.1537C147.823 21.4508 147.519 22.0275 147.312 22.8839ZM151.358 28.8003L151.61 26.6389C151.165 26.9522 150.303 27.1631 149.023 27.2716C148.09 27.3561 147.41 27.5668 146.984 27.9038C146.58 28.2432 146.335 28.7731 146.251 29.4936C146.177 30.1293 146.277 30.6564 146.55 31.0748C146.826 31.4721 147.229 31.7016 147.759 31.7634C148.649 31.8672 149.438 31.637 150.126 31.073C150.839 30.4902 151.249 29.7326 151.358 28.8003Z" fill="black"/>
</svg>
