<svg width="8" height="22" viewBox="0 0 8 22" fill="none" xmlns="http://www.w3.org/2000/svg">
<path d="M3.66211 0C5.70312 0 7.33398 1.66016 7.33398 3.68164C7.33398 5.40039 6.16211 6.8457 4.57031 7.23633V16.2988C4.57031 19.1895 4.0625 20.752 3.66211 20.752C3.27148 20.752 2.75391 19.1797 2.75391 16.2988V7.23633C1.16211 6.83594 3.22407e-07 5.40039 0 3.68164C0 1.66016 1.63086 3.89724e-07 3.66211 0ZM2.61719 1.36719C1.94336 1.36719 1.35742 1.94336 1.35742 2.61719C1.35742 3.30078 1.94336 3.88672 2.61719 3.88672C3.30078 3.88672 3.86719 3.30078 3.86719 2.61719C3.86719 1.94336 3.30078 1.36719 2.61719 1.36719Z" fill="white" fill-opacity="0.85"/>
</svg>
